<svg width="27" height="27" viewBox="0 0 27 27" fill="none" xmlns="http://www.w3.org/2000/svg">
<path d="M20.9932 6.53332C21.0125 6.66336 20.9903 6.79617 20.9298 6.91286C20.8692 7.02954 20.7734 7.12417 20.656 7.18327C20.5386 7.24237 20.4055 7.26295 20.2757 7.24206C20.1459 7.22118 20.026 7.1599 19.9331 7.06694C19.8401 6.97398 19.7788 6.85408 19.7579 6.72429C19.7371 6.5945 19.7576 6.46143 19.8167 6.34401C19.8758 6.22658 19.9705 6.13078 20.0871 6.07024C20.2038 6.00969 20.3366 5.98748 20.4667 6.00676C20.5993 6.02643 20.7221 6.08824 20.8169 6.18306C20.9118 6.27788 20.9736 6.40068 20.9932 6.53332Z" stroke="white" stroke-width="2" stroke-linecap="round" stroke-linejoin="round"/>
<path d="M18.5001 12.7126C18.6544 13.7529 18.4767 14.8154 17.9923 15.7489C17.5079 16.6824 16.7416 17.4394 15.8022 17.9122C14.8628 18.3851 13.7982 18.5496 12.7599 18.3825C11.7215 18.2155 10.7623 17.7252 10.0187 16.9816C9.27502 16.2379 8.78479 15.2787 8.61771 14.2404C8.45063 13.2021 8.6152 12.1375 9.08803 11.1981C9.56086 10.2587 10.3179 9.49231 11.2514 9.00793C12.1849 8.52356 13.2473 8.34587 14.2876 8.50013C15.3488 8.65749 16.3312 9.15196 17.0897 9.91052C17.8483 10.6691 18.3428 11.6515 18.5001 12.7126Z" stroke="white" stroke-width="2" stroke-linecap="round" stroke-linejoin="round"/>
<path d="M19.75 1H7.25C3.79822 1 1 3.79822 1 7.25V19.75C1 23.2018 3.79822 26 7.25 26H19.75C23.2018 26 26 23.2018 26 19.75V7.25C26 3.79822 23.2018 1 19.75 1Z" stroke="white" stroke-width="2" stroke-linecap="round" stroke-linejoin="round"/>
</svg>
