<svg width="22" height="22" viewBox="0 0 22 22" fill="none" xmlns="http://www.w3.org/2000/svg">
<path d="M1 1H3.22222L3.52525 4.75M3.52525 4.75L4.17231 12.7574C4.26125 13.858 5.22534 14.6783 6.32601 14.5899L18.2697 13.6301C19.2131 13.5543 19.9743 12.8275 20.0935 11.8885L21 4.75H3.52525Z" stroke="white" stroke-width="2" stroke-linecap="round" stroke-linejoin="round"/>
<path d="M7.66665 21C8.2803 21 8.77776 20.4404 8.77776 19.75C8.77776 19.0596 8.2803 18.5 7.66665 18.5C7.053 18.5 6.55554 19.0596 6.55554 19.75C6.55554 20.4404 7.053 21 7.66665 21Z" stroke="white" stroke-width="2" stroke-linecap="round" stroke-linejoin="round"/>
<path d="M16.5556 21C17.1692 21 17.6667 20.4404 17.6667 19.75C17.6667 19.0596 17.1692 18.5 16.5556 18.5C15.9419 18.5 15.4445 19.0596 15.4445 19.75C15.4445 20.4404 15.9419 21 16.5556 21Z" stroke="white" stroke-width="2" stroke-linecap="round" stroke-linejoin="round"/>
</svg>
